<mxfile host="65bd71144e">
    <diagram id="GGNJkyq_Vfi91rIQcqQW" name="Page-1">
        <mxGraphModel dx="954" dy="541" grid="1" gridSize="10" guides="1" tooltips="1" connect="1" arrows="1" fold="1" page="1" pageScale="1" pageWidth="827" pageHeight="1169" math="0" shadow="0">
            <root>
                <mxCell id="0"/>
                <mxCell id="1" parent="0"/>
                <mxCell id="4" style="edgeStyle=none;html=1;exitX=0.5;exitY=1;exitDx=0;exitDy=0;exitPerimeter=0;entryX=0.5;entryY=0;entryDx=0;entryDy=0;" edge="1" parent="1" source="2" target="3">
                    <mxGeometry relative="1" as="geometry"/>
                </mxCell>
                <mxCell id="2" value="Inicio" style="strokeWidth=2;html=1;shape=mxgraph.flowchart.start_2;whiteSpace=wrap;" vertex="1" parent="1">
                    <mxGeometry x="320" y="60" width="100" height="100" as="geometry"/>
                </mxCell>
                <mxCell id="6" style="edgeStyle=none;html=1;entryX=0.5;entryY=0;entryDx=0;entryDy=0;entryPerimeter=0;fontSize=24;exitX=0.407;exitY=1.007;exitDx=0;exitDy=0;exitPerimeter=0;" edge="1" parent="1" source="3" target="5">
                    <mxGeometry relative="1" as="geometry"/>
                </mxCell>
                <mxCell id="3" value="Pedimos que seleccione una cantidad de&lt;br&gt;&amp;nbsp;numeros y los escriba." style="shape=parallelogram;html=1;strokeWidth=2;perimeter=parallelogramPerimeter;whiteSpace=wrap;rounded=1;arcSize=12;size=0.23;" vertex="1" parent="1">
                    <mxGeometry x="215" y="220" width="310" height="120" as="geometry"/>
                </mxCell>
                <mxCell id="8" value="SI" style="edgeStyle=none;html=1;exitX=0;exitY=0.5;exitDx=0;exitDy=0;exitPerimeter=0;fontSize=24;entryX=0.5;entryY=0;entryDx=0;entryDy=0;" edge="1" parent="1" source="5">
                    <mxGeometry relative="1" as="geometry">
                        <mxPoint x="75" y="680" as="targetPoint"/>
                        <Array as="points">
                            <mxPoint x="80" y="480"/>
                        </Array>
                    </mxGeometry>
                </mxCell>
                <mxCell id="10" value="&lt;font style=&quot;font-size: 24px;&quot;&gt;NO&lt;/font&gt;" style="edgeStyle=none;html=1;exitX=1;exitY=0.5;exitDx=0;exitDy=0;exitPerimeter=0;fontSize=10;entryX=0.611;entryY=-0.013;entryDx=0;entryDy=0;entryPerimeter=0;" edge="1" parent="1" source="5" target="12">
                    <mxGeometry relative="1" as="geometry">
                        <mxPoint x="660" y="670" as="targetPoint"/>
                        <Array as="points">
                            <mxPoint x="630" y="480"/>
                            <mxPoint x="660" y="480"/>
                        </Array>
                    </mxGeometry>
                </mxCell>
                <mxCell id="5" value="&lt;font style=&quot;&quot;&gt;&lt;span style=&quot;font-size: 24px;&quot;&gt;&amp;nbsp;I &amp;lt; J?&lt;/span&gt;&lt;br&gt;&lt;br&gt;&lt;font style=&quot;font-size: 10px;&quot;&gt;Esta comparacion se realiza de izq &lt;br&gt;a derecha&lt;/font&gt;&lt;br&gt;&lt;/font&gt;" style="strokeWidth=2;html=1;shape=mxgraph.flowchart.decision;whiteSpace=wrap;align=center;" vertex="1" parent="1">
                    <mxGeometry x="200" y="400" width="280" height="160" as="geometry"/>
                </mxCell>
                <mxCell id="14" style="edgeStyle=none;html=1;fontSize=10;entryX=0.406;entryY=-0.005;entryDx=0;entryDy=0;entryPerimeter=0;" edge="1" parent="1" source="11" target="15">
                    <mxGeometry relative="1" as="geometry">
                        <mxPoint x="380" y="1000" as="targetPoint"/>
                        <Array as="points">
                            <mxPoint x="220" y="950"/>
                        </Array>
                    </mxGeometry>
                </mxCell>
                <mxCell id="11" value="&#10;&lt;span style=&quot;color: rgb(240, 240, 240); font-family: Helvetica; font-size: 10px; font-style: normal; font-variant-ligatures: normal; font-variant-caps: normal; font-weight: 400; letter-spacing: normal; orphans: 2; text-align: center; text-indent: 0px; text-transform: none; widows: 2; word-spacing: 0px; -webkit-text-stroke-width: 0px; background-color: rgb(42, 37, 47); text-decoration-thickness: initial; text-decoration-style: initial; text-decoration-color: initial; float: none; display: inline !important;&quot;&gt;Entonces se deja ese orden&lt;/span&gt;&lt;br style=&quot;border-color: rgb(0, 0, 0); color: rgb(240, 240, 240); font-family: Helvetica; font-size: 10px; font-style: normal; font-variant-ligatures: normal; font-variant-caps: normal; font-weight: 400; letter-spacing: normal; orphans: 2; text-align: center; text-indent: 0px; text-transform: none; widows: 2; word-spacing: 0px; -webkit-text-stroke-width: 0px; background-color: rgb(42, 37, 47); text-decoration-thickness: initial; text-decoration-style: initial; text-decoration-color: initial;&quot;&gt;&lt;span style=&quot;color: rgb(240, 240, 240); font-family: Helvetica; font-size: 10px; font-style: normal; font-variant-ligatures: normal; font-variant-caps: normal; font-weight: 400; letter-spacing: normal; orphans: 2; text-align: center; text-indent: 0px; text-transform: none; widows: 2; word-spacing: 0px; -webkit-text-stroke-width: 0px; background-color: rgb(42, 37, 47); text-decoration-thickness: initial; text-decoration-style: initial; text-decoration-color: initial; float: none; display: inline !important;&quot;&gt;&amp;nbsp;entre esos dos numeros&lt;/span&gt;&#10;&#10;" style="rounded=1;whiteSpace=wrap;html=1;absoluteArcSize=1;arcSize=14;strokeWidth=2;fontSize=24;" vertex="1" parent="1">
                    <mxGeometry y="680" width="160" height="140" as="geometry"/>
                </mxCell>
                <mxCell id="13" style="edgeStyle=none;html=1;entryX=0.572;entryY=0.943;entryDx=0;entryDy=0;entryPerimeter=0;fontSize=10;" edge="1" parent="1" source="12" target="5">
                    <mxGeometry relative="1" as="geometry"/>
                </mxCell>
                <mxCell id="12" value="&lt;font style=&quot;font-size: 10px;&quot;&gt;Entonces se intercambian la posiciÃ³n&lt;/font&gt;" style="rounded=1;whiteSpace=wrap;html=1;absoluteArcSize=1;arcSize=14;strokeWidth=2;fontSize=24;" vertex="1" parent="1">
                    <mxGeometry x="560" y="680" width="160" height="140" as="geometry"/>
                </mxCell>
                <mxCell id="15" value="FIN" style="strokeWidth=2;html=1;shape=mxgraph.flowchart.terminator;whiteSpace=wrap;fontSize=10;" vertex="1" parent="1">
                    <mxGeometry x="340" y="1010" width="100" height="60" as="geometry"/>
                </mxCell>
            </root>
        </mxGraphModel>
    </diagram>
</mxfile>